<?xml version="1.0" encoding="utf-8"?>
<!-- Generator: Adobe Illustrator 26.5.0, SVG Export Plug-In . SVG Version: 6.00 Build 0)  -->
<svg version="1.1" id="Layer_1" xmlns="http://www.w3.org/2000/svg" xmlns:xlink="http://www.w3.org/1999/xlink" x="0px" y="0px"
	 width="1000px" height="2000px" viewBox="0 0 1000 2000" style="enable-background:new 0 0 1000 2000;" xml:space="preserve">
<style type="text/css">
	.st0{fill:#010101;}
</style>
<circle class="st0" cx="506.972" cy="619.633" r="324.914"/>
<path class="st0" d="M245.077,1555.578v-167.307c0-12.097,2.419-23.59,7.258-34.478c5.081-10.888,11.976-20.445,20.687-28.671
	c8.71-8.468,18.509-15.122,29.397-19.961c11.13-4.839,22.864-7.258,35.203-7.258c12.339,0,24.074,2.54,35.203,7.621
	c11.13,4.839,20.928,11.614,29.397,20.324c8.71,8.468,15.485,18.267,20.324,29.397c5.081,11.13,7.621,22.864,7.621,35.203
	c0,12.339-2.54,24.074-7.621,35.203c-4.839,11.13-11.613,21.049-20.324,29.76c-8.468,8.468-18.267,15.243-29.397,20.324
	c-11.13,4.839-22.864,7.258-35.203,7.258c-3.145,1.694-5.928,3.024-8.347,3.992c-2.419,0.726-4.718,1.21-6.896,1.452l12.339-22.864
	c0.968,2.178,1.815,4.476,2.54,6.896c0.968,2.178,1.936,4.355,2.903,6.533l32.3,76.577h-46.091l-40.284-93.997
	c-1.452-3.387-2.903-6.775-4.355-10.162c-1.452-3.387-2.903-6.775-4.355-10.162l11.251,1.815v112.506H245.077z M337.622,1441.258
	c9.436,0,17.904-2.178,25.405-6.533c7.5-4.597,13.428-10.767,17.783-18.509c4.355-7.742,6.533-16.453,6.533-26.13
	c0-9.436-2.178-18.025-6.533-25.768c-4.355-7.742-10.283-13.791-17.783-18.146c-7.5-4.597-15.969-6.896-25.405-6.896
	s-17.904,2.299-25.405,6.896c-7.5,4.355-13.428,10.404-17.783,18.146c-4.355,7.742-6.533,16.453-6.533,26.13
	c0,9.436,2.178,18.025,6.533,25.767c4.355,7.742,10.283,13.912,17.783,18.509C319.718,1439.08,328.186,1441.258,337.622,1441.258z
	 M505.488,1559.207c-11.855,0-23.106-2.298-33.752-6.896c-10.646-4.839-20.203-11.372-28.671-19.598
	c-8.226-8.226-14.759-17.662-19.598-28.308c-4.597-10.888-6.896-22.259-6.896-34.115c0-11.372,2.299-22.38,6.896-33.026
	c4.839-10.646,11.372-20.082,19.598-28.308c8.468-8.468,18.025-15.122,28.671-19.961c10.646-4.839,21.896-7.258,33.752-7.258
	c12.097,0,23.59,2.42,34.478,7.258c11.13,4.597,20.807,11.009,29.034,19.235h-36.292c-0.484-0.968-0.968-1.936-1.452-2.903
	c-0.242-0.968-0.605-1.936-1.089-2.903c-0.484-0.968-0.968-1.936-1.452-2.903l-24.679-56.253h46.091l27.582,62.786
	c3.145,7.258,5.928,14.154,8.347,20.687c2.661,6.291,4.718,13.065,6.17,20.324c1.452,7.016,2.177,15.485,2.177,25.404
	c0,11.614-2.419,22.743-7.258,33.389c-4.597,10.404-11.13,19.598-19.598,27.582c-8.226,7.984-17.662,14.275-28.308,18.872
	S517.343,1559.207,505.488,1559.207z M505.488,1517.834c8.71,0,16.573-2.057,23.59-6.17c7.016-4.355,12.46-10.041,16.331-17.057
	c4.113-7.258,6.17-15.364,6.17-24.316c0-8.952-2.057-16.936-6.17-23.953c-3.871-7.016-9.315-12.581-16.331-16.694
	c-7.017-4.355-14.88-6.533-23.59-6.533c-8.468,0-16.211,2.177-23.227,6.533c-7.016,4.113-12.581,9.678-16.694,16.694
	c-4.113,7.016-6.17,15.001-6.17,23.953c0,8.952,2.057,17.057,6.17,24.316c4.113,7.016,9.678,12.702,16.694,17.057
	C489.277,1515.778,497.019,1517.834,505.488,1517.834z"/>
<g>
</g>
<g>
</g>
<g>
</g>
<g>
</g>
<g>
</g>
<g>
</g>
</svg>
